<?xml version="1.0" encoding="UTF-8" standalone="no"?>
<!-- Created with Inkscape (http://www.inkscape.org/) -->

<svg
   width="122mm"
   height="122mm"
   viewBox="0 0 122 122"
   version="1.1"
   id="svg7864"
   inkscape:version="1.2.2 (1:1.2.2+202305151914+b0a8486541)"
   sodipodi:docname="21quer-klein+logo+text_inkscape.svg"
   inkscape:export-filename="21quer-klein+logo+text.pdf"
   inkscape:export-xdpi="300"
   inkscape:export-ydpi="300"
   xmlns:inkscape="http://www.inkscape.org/namespaces/inkscape"
   xmlns:sodipodi="http://sodipodi.sourceforge.net/DTD/sodipodi-0.dtd"
   xmlns="http://www.w3.org/2000/svg"
   xmlns:svg="http://www.w3.org/2000/svg">
  <sodipodi:namedview
     id="namedview7866"
     pagecolor="#ffffff"
     bordercolor="#000000"
     borderopacity="0.25"
     inkscape:showpageshadow="2"
     inkscape:pageopacity="1"
     inkscape:pagecheckerboard="0"
     inkscape:deskcolor="#d1d1d1"
     inkscape:document-units="mm"
     showgrid="false"
     showguides="true"
     inkscape:zoom="0.70199215"
     inkscape:cx="-212.25309"
     inkscape:cy="376.07258"
     inkscape:window-width="1920"
     inkscape:window-height="1043"
     inkscape:window-x="0"
     inkscape:window-y="0"
     inkscape:window-maximized="1"
     inkscape:current-layer="svg7864">
    <sodipodi:guide
       position="116.39871,60.769086"
       orientation="1,0"
       id="guide9322"
       inkscape:locked="false" />
    <sodipodi:guide
       position="19.38868,64.50024"
       orientation="1,0"
       id="guide9324"
       inkscape:locked="false" />
    <sodipodi:guide
       position="73.157286,90.551697"
       orientation="1,0"
       id="guide9394"
       inkscape:locked="false" />
  </sodipodi:namedview>
  <defs
     id="defs7861" />
  <g
     inkscape:label="Layer 1"
     inkscape:groupmode="layer"
     id="layer1"
     style="display:inline">
    <rect
       style="fill:#000000;stroke-width:0.264583"
       id="rect8499"
       width="122"
       height="27"
       x="0"
       y="47.095833" />
    <text
       xml:space="preserve"
       style="font-size:15.9643px;display:inline;fill:#ffffff;stroke-width:0.187083"
       x="18.21784"
       y="64.78109"
       id="text79"><tspan
         sodipodi:role="line"
         id="tspan77"
         x="18.21784"
         y="64.78109"
         style="font-style:italic;font-variant:normal;font-weight:bold;font-stretch:normal;font-size:15.9643px;font-family:Ubuntu;-inkscape-font-specification:'Ubuntu, Bold Italic';font-variant-ligatures:normal;font-variant-caps:normal;font-variant-numeric:normal;font-variant-east-asian:normal;fill:#ffffff;fill-opacity:1;stroke-width:0.187083">bitcoin beach</tspan></text>
    <text
       xml:space="preserve"
       style="font-style:italic;font-variant:normal;font-weight:500;font-stretch:normal;font-size:3.99108px;font-family:Ubuntu;-inkscape-font-specification:'Ubuntu, Medium Italic';font-variant-ligatures:normal;font-variant-caps:normal;font-variant-numeric:normal;font-variant-east-asian:normal;letter-spacing:2.43206px;word-spacing:0px;display:inline;fill:#ffffff;fill-opacity:1;stroke-width:0.187083"
       x="18.718399"
       y="69.650192"
       id="text205"><tspan
         sodipodi:role="line"
         id="tspan203"
         x="18.718399"
         y="69.650192"
         style="fill:#ffffff;stroke-width:0.187083">TRAVEMÜNDE</tspan></text>
    <g
       id="g2898"
       transform="matrix(0.19722784,0,0,0.19722784,-53.29403,-10.226409)"
       style="display:inline">
      <path
         d="m 352.64,357.25 c -4.274,17.143 -21.637,27.576 -38.782,23.301 -17.138,-4.274 -27.571,-21.638 -23.295,-38.78 4.272,-17.145 21.635,-27.579 38.775,-23.305 17.144,4.274 27.576,21.64 23.302,38.784 z"
         fill="#f7931a"
         id="path2668" />
      <path
         d="m 335.71,344.95 c 0.637,-4.258 -2.605,-6.547 -7.038,-8.074 l 1.438,-5.768 -3.511,-0.875 -1.4,5.616 c -0.923,-0.23 -1.871,-0.447 -2.813,-0.662 l 1.41,-5.653 -3.509,-0.875 -1.439,5.766 c -0.764,-0.174 -1.514,-0.346 -2.242,-0.527 l 0.004,-0.018 -4.842,-1.209 -0.934,3.75 c 0,0 2.605,0.597 2.55,0.634 1.422,0.355 1.679,1.296 1.636,2.042 l -1.638,6.571 c 0.098,0.025 0.225,0.061 0.365,0.117 -0.117,-0.029 -0.242,-0.061 -0.371,-0.092 l -2.296,9.205 c -0.174,0.432 -0.615,1.08 -1.609,0.834 0.035,0.051 -2.552,-0.637 -2.552,-0.637 l -1.743,4.019 4.569,1.139 c 0.85,0.213 1.683,0.436 2.503,0.646 l -1.453,5.834 3.507,0.875 1.439,-5.772 c 0.958,0.26 1.888,0.5 2.798,0.726 l -1.434,5.745 3.511,0.875 1.453,-5.823 c 5.987,1.133 10.489,0.676 12.384,-4.739 1.527,-4.36 -0.076,-6.875 -3.226,-8.515 2.294,-0.529 4.022,-2.038 4.483,-5.155 z m -8.022,11.249 c -1.085,4.36 -8.426,2.003 -10.806,1.412 l 1.928,-7.729 c 2.38,0.594 10.012,1.77 8.878,6.317 z m 1.086,-11.312 c -0.99,3.966 -7.1,1.951 -9.082,1.457 l 1.748,-7.01 c 1.982,0.494 8.365,1.416 7.334,5.553 z"
         fill="#ffffff"
         id="path2670" />
    </g>
  </g>
  <g
     id="g9392"
     transform="matrix(0.34280331,6.8574136e-4,-6.8574136e-4,0.34280331,73.148581,8.4676816)"
     style="display:inline">
    <path
       d="m 133.83629,9.4208962 c -0.44318,1.7775968 -2.24359,2.8594178 -4.02139,2.4161338 -1.77708,-0.443181 -2.8589,-2.2436936 -2.41551,-4.0211864 0.44297,-1.777804 2.24338,-2.8597291 4.02066,-2.4165483 1.7777,0.4431807 2.85942,2.2439006 2.41624,4.0216009 z"
       fill="#f7931a"
       id="path9386" />
    <path
       d="m 132.08026,8.1454813 c 0.066,-0.4415217 -0.27012,-0.6788733 -0.72978,-0.8372114 l 0.14911,-0.598097 -0.36407,-0.090731 -0.14517,0.5823357 c -0.0957,-0.023849 -0.19401,-0.04635 -0.29169,-0.068644 l 0.14621,-0.5861724 -0.36385,-0.090731 -0.14922,0.5978897 c -0.0792,-0.018042 -0.15699,-0.035878 -0.23248,-0.054646 l 4.2e-4,-0.00187 -0.50208,-0.125364 -0.0968,0.388846 c 0,0 0.27012,0.061904 0.26442,0.065741 0.14745,0.036811 0.1741,0.1343852 0.16964,0.2117396 -0.40855,1.6384415 0,0 -0.40855,1.6384415 -0.018,0.044795 -0.0638,0.1119877 -0.16684,0.086479 0.004,0.00529 -0.26462,-0.066052 -0.26462,-0.066052 l -0.18074,0.4167392 0.47377,0.1181055 c 0.0881,0.022087 0.17452,0.04521 0.25954,0.066985 l -0.15066,0.6049413 0.36365,0.09073 0.14921,-0.5985126 c 0.0993,0.02696 0.19577,0.051846 0.29013,0.075281 l -0.14869,0.5957126 0.36406,0.09073 0.15067,-0.6038 c 0.6208,0.117484 1.08762,0.0701 1.28412,-0.4913975 0.15834,-0.4520983 -0.008,-0.7128844 -0.33451,-0.8829397 0.23787,-0.054853 0.41705,-0.2113248 0.46485,-0.5345336 z m -0.83182,1.1664343 c -0.1125,0.4520983 -0.87371,0.2076956 -1.1205,0.1464135 l 0.19992,-0.8014376 c 0.24679,0.061593 1.03817,0.1835353 0.92058,0.6550241 z m 0.11261,-1.1729669 c -0.10265,0.4112435 -0.73621,0.2023036 -0.94173,0.1510796 l 0.18125,-0.7268828 c 0.20552,0.051224 0.86739,0.1468282 0.76048,0.5758032 z"
       fill="#ffffff"
       id="path9388" />
    <path
       d="M 7.6378378,11.902703 V 9.1621622 H 2.7405405 V 7.2810811 h 3.972973 V 4.5405405 h -3.972973 v -1.8 H 7.6378378 V 0 L 0,0.01621621 V 11.902703 Z m 4.1513512,0.01622 V 0 H 9.0486486 v 11.918919 z m 4.362162,-0.01622 V 4.9621622 l 3.891892,6.9405408 h 2.967568 V 0 H 20.27027 V 6.9567568 L 16.394595,0.03243244 H 13.410811 V 11.902703 Z m 12.940541,0.01622 c 0.616216,-0.01081 1.197297,-0.137838 1.743243,-0.381081 0.545946,-0.243243 1.021622,-0.57027 1.427027,-0.981081 0.405406,-0.410811 0.724324,-0.8918921 0.956757,-1.4432434 0.232432,-0.5513514 0.343243,-1.1351352 0.332432,-1.7513514 V 0 h -2.74054 v 7.3783784 c 0,0.2486486 -0.04324,0.4810811 -0.12973,0.6972973 -0.08649,0.2162162 -0.210811,0.4054054 -0.372973,0.5675675 -0.162162,0.1621623 -0.351351,0.2918919 -0.567567,0.3891892 -0.216217,0.097297 -0.443244,0.145946 -0.681081,0.145946 -0.486487,0 -0.908109,-0.1675676 -1.264865,-0.5027027 C 27.437838,8.3189189 27.259459,7.9027027 27.259459,7.427027 V 0 h -2.74054 v 7.4432433 c 0.01081,0.6162162 0.132432,1.1945946 0.364865,1.7351351 0.232432,0.5405405 0.564865,1.0270276 0.997297,1.4594596 0.421622,0.410811 0.902703,0.727027 1.443243,0.948649 0.540541,0.221621 1.113514,0.332432 1.718919,0.332432 z m 8.837838,-0.01622 V 4.9621622 l 3.891892,6.9405408 h 2.967567 V 0 h -2.74054 V 6.9567568 L 38.172973,0.03243244 H 35.189189 V 11.902703 Z m 10.735135,0.06486 c 0.810811,-0.04324 1.562162,-0.224325 2.254054,-0.543244 0.691892,-0.318919 1.294595,-0.743243 1.808108,-1.272973 0.513514,-0.5297294 0.916216,-1.1432429 1.208108,-1.8405402 0.291892,-0.6972973 0.437838,-1.4459459 0.437838,-2.2459459 0,-0.8108108 -0.148649,-1.572973 -0.445946,-2.2864865 C 53.62973,3.0648649 53.224324,2.4378378 52.710811,1.8972973 52.197297,1.3567568 51.591892,0.91891892 50.894595,0.58378379 50.197297,0.24864865 49.454054,0.05945947 48.664865,0.01621622 V 0 h -2.740541 v 11.967568 z m 0,-2.7497842 V 2.7637297 c 0.421622,0.043243 0.810811,0.1594595 1.167567,0.3486487 0.356757,0.1891892 0.670271,0.4324324 0.940541,0.7297297 0.27027,0.2972973 0.481081,0.6378378 0.632432,1.0216216 0.151352,0.3837838 0.227027,0.7864865 0.227027,1.2081081 0,0.4108109 -0.07568,0.8 -0.227027,1.1675676 -0.151351,0.3675676 -0.359459,0.6891892 -0.624324,0.9648649 -0.264865,0.2756756 -0.578378,0.5027027 -0.94054,0.6810811 -0.362163,0.1783783 -0.754054,0.2891891 -1.175676,0.3324324 z M 63.956757,12 V 9.2594595 H 59.043243 L 64.021622,0.01621621 55.102703,0 v 2.7567568 h 4.329729 L 54.454054,12 Z m 7.07027,-0.01622 1.362162,-5.9675678 1.572973,5.9675678 H 76.67027 L 80.189189,0 h -2.87027 L 75.389189,6.6 73.637838,0 H 70.945946 L 69.437838,6.6324324 67.232432,0 h -2.886486 l 3.956757,11.983784 z M 81.62027,11.9027 82.106757,10.459456 h 3.745946 l 0.47027,1.443244 H 89.20946 L 85.366216,0 H 82.771622 L 78.717568,11.902703 Z M 84.977027,7.713 h -1.92973 l 0.98919,-2.8864865 z m 7.783784,4.189703 V 4.9621622 l 3.891892,6.9405408 H 99.62027 V 0 H 96.87973 V 6.9567568 L 93.004054,0.03243244 H 90.02027 V 11.902703 Z M 110.07973,12 V 9.2594595 h -4.91351 L 110.14459,0.01621621 101.22568,0 v 2.7567568 h 4.32973 L 100.57703,12 Z m 3.81081,-0.08108 V 0 H 111.15 v 11.918919 z m 7.28108,0.03243 c 0.31352,0 0.62973,-0.02432 0.94865,-0.07297 0.31892,-0.04865 0.62973,-0.127027 0.93243,-0.235135 v 0.291892 h 2.75676 V 5.2702703 h -5.14054 v 2.7405405 h 2.38378 v 0.6 C 122.73919,8.8378378 122.39865,9 122.03108,9.0972973 121.66351,9.1945946 121.29324,9.2297297 120.92027,9.2027027 120.5473,9.1756756 120.18514,9.0837838 119.83378,8.927027 119.48243,8.7702702 119.16622,8.5513513 118.88514,8.2702703 118.57162,7.9567568 118.33378,7.6 118.17162,7.2 c -0.16216,-0.4 -0.24324,-0.8054054 -0.24324,-1.2162162 0,-0.4108108 0.0811,-0.8162162 0.24324,-1.2162162 0.16216,-0.4 0.4,-0.7567568 0.71352,-1.0702703 0.31351,-0.3135135 0.67027,-0.5486487 1.07027,-0.7054054 0.4,-0.1567568 0.8054,-0.2351351 1.21621,-0.2351351 0.41081,0 0.81622,0.078378 1.21622,0.2351351 0.4,0.1567567 0.75675,0.3918919 1.07027,0.7054054 l 1.94594,-1.945946 C 124.82027,1.1675676 124.16081,0.72972973 123.42567,0.43783783 122.69054,0.14594595 121.93919,0 121.17162,0 c -0.76757,0 -1.51892,0.14594595 -2.25405,0.43783783 -0.73514,0.2918919 -1.3946,0.72972977 -1.97838,1.31351347 -0.58378,0.5837838 -1.01892,1.2432433 -1.30541,1.9783784 -0.28648,0.7351352 -0.42973,1.4864865 -0.42973,2.2540541 0,0.7675675 0.14325,1.5162162 0.42973,2.2459459 0.28649,0.7297298 0.72163,1.3864865 1.30541,1.9702703 0.58378,0.583784 1.24324,1.021622 1.97838,1.313513 0.73513,0.291892 1.48648,0.437838 2.25405,0.437837 z"
       fill="#000000"
       id="path9390" />
  </g>
</svg>
