<?xml version="1.0" encoding="UTF-8" standalone="no"?>
<!-- Created with Inkscape (http://www.inkscape.org/) -->

<svg
   width="122mm"
   height="122mm"
   viewBox="0 0 122 122"
   version="1.1"
   id="svg7864"
   inkscape:version="1.2.2 (1:1.2.2+202305151914+b0a8486541)"
   sodipodi:docname="21quad+logo+text_inkscape.svg"
   inkscape:export-filename="21+logo3.png"
   inkscape:export-xdpi="300"
   inkscape:export-ydpi="300"
   xmlns:inkscape="http://www.inkscape.org/namespaces/inkscape"
   xmlns:sodipodi="http://sodipodi.sourceforge.net/DTD/sodipodi-0.dtd"
   xmlns="http://www.w3.org/2000/svg"
   xmlns:svg="http://www.w3.org/2000/svg">
  <sodipodi:namedview
     id="namedview7866"
     pagecolor="#ffffff"
     bordercolor="#000000"
     borderopacity="0.25"
     inkscape:showpageshadow="2"
     inkscape:pageopacity="1"
     inkscape:pagecheckerboard="0"
     inkscape:deskcolor="#d1d1d1"
     inkscape:document-units="mm"
     showgrid="false"
     showguides="true"
     inkscape:zoom="0.70199215"
     inkscape:cx="-92.593628"
     inkscape:cy="376.07258"
     inkscape:window-width="1920"
     inkscape:window-height="1043"
     inkscape:window-x="0"
     inkscape:window-y="0"
     inkscape:window-maximized="1"
     inkscape:current-layer="svg7864">
    <sodipodi:guide
       position="116.39871,60.769086"
       orientation="1,0"
       id="guide9322"
       inkscape:locked="false" />
    <sodipodi:guide
       position="19.38868,64.50024"
       orientation="1,0"
       id="guide9324"
       inkscape:locked="false" />
    <sodipodi:guide
       position="73.157286,90.551697"
       orientation="1,0"
       id="guide9394"
       inkscape:locked="false" />
  </sodipodi:namedview>
  <defs
     id="defs7861" />
  <g
     inkscape:label="Layer 1"
     inkscape:groupmode="layer"
     id="layer1"
     style="display:inline">
    <rect
       style="fill:#000000;stroke-width:0.264583"
       id="rect8499"
       width="122"
       height="27"
       x="0"
       y="78.845833" />
    <text
       xml:space="preserve"
       style="font-size:15.9643px;display:inline;fill:#ffffff;stroke-width:0.187083"
       x="18.21784"
       y="96.531075"
       id="text79"><tspan
         sodipodi:role="line"
         id="tspan77"
         x="18.21784"
         y="96.531075"
         style="font-style:italic;font-variant:normal;font-weight:bold;font-stretch:normal;font-size:15.9643px;font-family:Ubuntu;-inkscape-font-specification:'Ubuntu, Bold Italic';font-variant-ligatures:normal;font-variant-caps:normal;font-variant-numeric:normal;font-variant-east-asian:normal;fill:#ffffff;fill-opacity:1;stroke-width:0.187083">bitcoin beach</tspan></text>
    <text
       xml:space="preserve"
       style="font-style:italic;font-variant:normal;font-weight:500;font-stretch:normal;font-size:3.99108px;font-family:Ubuntu;-inkscape-font-specification:'Ubuntu, Medium Italic';font-variant-ligatures:normal;font-variant-caps:normal;font-variant-numeric:normal;font-variant-east-asian:normal;letter-spacing:2.43206px;word-spacing:0px;display:inline;fill:#ffffff;fill-opacity:1;stroke-width:0.187083"
       x="18.718399"
       y="101.40018"
       id="text205"><tspan
         sodipodi:role="line"
         id="tspan203"
         x="18.718399"
         y="101.40018"
         style="fill:#ffffff;stroke-width:0.187083">TRAVEMÜNDE</tspan></text>
    <g
       id="g2898"
       transform="matrix(0.19722784,0,0,0.19722784,-53.29403,21.523592)"
       style="display:inline">
      <path
         d="m 352.64,357.25 c -4.274,17.143 -21.637,27.576 -38.782,23.301 -17.138,-4.274 -27.571,-21.638 -23.295,-38.78 4.272,-17.145 21.635,-27.579 38.775,-23.305 17.144,4.274 27.576,21.64 23.302,38.784 z"
         fill="#f7931a"
         id="path2668" />
      <path
         d="m 335.71,344.95 c 0.637,-4.258 -2.605,-6.547 -7.038,-8.074 l 1.438,-5.768 -3.511,-0.875 -1.4,5.616 c -0.923,-0.23 -1.871,-0.447 -2.813,-0.662 l 1.41,-5.653 -3.509,-0.875 -1.439,5.766 c -0.764,-0.174 -1.514,-0.346 -2.242,-0.527 l 0.004,-0.018 -4.842,-1.209 -0.934,3.75 c 0,0 2.605,0.597 2.55,0.634 1.422,0.355 1.679,1.296 1.636,2.042 l -1.638,6.571 c 0.098,0.025 0.225,0.061 0.365,0.117 -0.117,-0.029 -0.242,-0.061 -0.371,-0.092 l -2.296,9.205 c -0.174,0.432 -0.615,1.08 -1.609,0.834 0.035,0.051 -2.552,-0.637 -2.552,-0.637 l -1.743,4.019 4.569,1.139 c 0.85,0.213 1.683,0.436 2.503,0.646 l -1.453,5.834 3.507,0.875 1.439,-5.772 c 0.958,0.26 1.888,0.5 2.798,0.726 l -1.434,5.745 3.511,0.875 1.453,-5.823 c 5.987,1.133 10.489,0.676 12.384,-4.739 1.527,-4.36 -0.076,-6.875 -3.226,-8.515 2.294,-0.529 4.022,-2.038 4.483,-5.155 z m -8.022,11.249 c -1.085,4.36 -8.426,2.003 -10.806,1.412 l 1.928,-7.729 c 2.38,0.594 10.012,1.77 8.878,6.317 z m 1.086,-11.312 c -0.99,3.966 -7.1,1.951 -9.082,1.457 l 1.748,-7.01 c 1.982,0.494 8.365,1.416 7.334,5.553 z"
         fill="#ffffff"
         id="path2670" />
    </g>
  </g>
  <g
     inkscape:groupmode="layer"
     id="layer11"
     inkscape:label="Layer 3"
     style="display:inline">
    <g
       id="g9460"
       transform="matrix(0.03988057,0,0,0.03988057,10.124763,16.302193)">
      <g
         transform="translate(664.88608,1117.481)"
         id="g9456">
        <path
           d="M 165.81833,104.54021 C 154.57541,149.63552 108.90138,177.07992 63.800805,165.83437 18.718645,154.59146 -8.7257575,108.91479 2.5224229,63.822112 13.760081,18.721539 59.434112,-8.7254945 104.52153,2.5174248 149.61948,13.760344 177.06125,59.442267 165.81833,104.54021 Z"
           id="Path"
           fill="#f7931a" />
        <path
           d="M 121.27017,72.184593 C 122.94582,60.983762 114.41762,54.96246 102.75644,50.945629 l 3.78271,-15.172943 -9.235813,-2.301721 -3.682754,14.773102 C 91.192597,47.639043 88.698847,47.068216 86.22088,46.50265 L 89.929939,31.632219 80.699381,29.330498 76.914037,44.49818 c -2.009731,-0.457713 -3.982635,-0.910166 -5.897666,-1.386293 l 0.01052,-0.04735 -12.737065,-3.18032 -2.456922,9.864517 c 0,0 6.852551,1.570431 6.707871,1.667761 3.740625,0.933841 4.416674,3.409178 4.30356,5.371559 -10.364319,41.56513 0,0 -10.364319,41.56513 -0.457714,1.136393 -1.617781,2.840976 -4.232536,2.193866 0.09207,0.13416 -6.713133,-1.67565 -6.713133,-1.67565 l -4.585027,10.57213 12.018928,2.99619 c 2.235957,0.5603 4.427195,1.14691 6.584236,1.69932 l -3.822172,15.34656 9.225297,2.30172 3.785344,-15.18346 c 2.520056,0.68394 4.966456,1.31527 7.360246,1.90977 l -3.772192,15.11244 9.235819,2.30172 3.822172,-15.31762 c 15.749032,2.9804 27.591712,1.77824 32.576582,-12.46612 4.01683,-11.469149 -0.19992,-18.084952 -8.48611,-22.399034 6.03445,-1.391555 10.58002,-5.361037 11.7927,-13.560423 z m -21.10218,29.590917 c -2.854131,11.46915 -22.164911,5.26897 -28.425591,3.71432 l 5.071677,-20.331424 c 6.260681,1.562539 26.336944,4.656052 23.353914,16.617104 z m 2.85677,-29.756641 c -2.60424,10.432713 -18.676823,5.132179 -23.890549,3.832693 l 4.59818,-18.440071 c 5.213726,1.299486 22.004449,3.724842 19.292369,14.607378 z"
           fill="#ffffff"
           id="path9454" />
      </g>
      <path
         d="M 203.13768,300.39904 V 231.36553 H 79.068373 V 183.98158 H 179.72062 v -69.0335 H 79.068373 V 69.606545 H 203.13768 V 0.5730392 L 9.63886,0.9815215 V 300.39904 Z m 105.17133,0 V 0.164557 H 238.8795 V 300.39904 Z m 110.51207,0 V 125.56862 l 98.59812,174.83042 h 75.18107 V 0.5730392 H 523.17076 V 175.81194 L 424.98346,1.3900038 H 349.39157 V 300.39904 Z M 130.01074,628.45476 c 15.61137,-0.27232 30.33261,-3.4721 44.16374,-9.59934 13.83113,-6.12723 25.88201,-14.36496 36.15265,-24.71317 10.27063,-10.34822 18.3502,-22.46653 24.2387,-36.35493 5.8885,-13.8884 8.69581,-28.59376 8.42192,-44.11608 V 328.22028 h -69.42951 v 185.85944 c 0,6.26339 -1.09553,12.11831 -3.2866,17.56474 -2.19107,5.44643 -5.34073,10.21205 -9.44899,14.29688 -4.10825,4.08482 -8.90122,7.35268 -14.37889,9.80357 -5.47768,2.45089 -11.22923,3.67634 -17.25467,3.67634 -12.32477,0 -23.00623,-4.22098 -32.044394,-12.66295 -9.038161,-8.98661 -13.557242,-19.47099 -13.557242,-31.45314 V 328.22028 H 14.157941 v 187.49337 c 0.273884,15.52232 3.355075,30.09153 9.243574,43.7076 5.888499,13.61608 14.310423,25.87055 25.26577,36.76341 10.681463,10.34822 22.869287,18.31362 36.563471,23.89621 13.694184,5.58259 28.210024,8.37389 43.547504,8.37389 z m 223.8999,0 V 453.62434 l 98.59813,174.83042 h 75.18107 v -299.826 h -69.42951 v 175.2389 l -98.1873,-174.42194 h -75.5919 v 299.00904 z m 271.9665,0 c 20.54127,-1.08929 39.57619,-5.65067 57.10475,-13.68416 17.52855,-8.03348 32.79757,-18.7221 45.80704,-32.06586 13.00948,-13.34375 23.21164,-28.798 30.6065,-46.36274 7.39486,-17.56473 11.09229,-36.423 11.09229,-56.57479 0,-20.42412 -3.7659,-39.62279 -11.2977,-57.59601 -7.5318,-17.97322 -17.80244,-33.76786 -30.81191,-47.38394 -13.00948,-13.61608 -28.34696,-24.6451 -46.01246,-33.08707 -17.6655,-8.44196 -36.495,-13.20759 -56.48851,-14.29688 v -0.40848 h -69.42951 v 301.45993 z m 0,-69.44199 V 396.43682 c 10.68146,1.08929 20.54127,4.01674 29.57944,8.78237 9.03816,4.76563 16.98078,10.89286 23.82788,18.3817 6.84709,7.48884 12.18782,16.06697 16.02219,25.73439 3.83437,9.66741 5.75156,19.81139 5.75156,30.43193 0,10.34821 -1.91719,20.15179 -5.75156,29.41072 -3.83437,9.25893 -9.10663,17.3605 -15.81678,24.3047 -6.71015,6.9442 -14.65278,12.66295 -23.82788,17.15625 -9.1751,4.49331 -19.10339,7.2846 -29.78485,8.37389 z M 240.93363,956.51048 V 887.47697 H 116.4535 L 242.57693,654.64207 16.622894,654.23359 v 69.44199 H 126.31331 L 0.189873,956.51048 Z m 179.11992,0 34.50935,-150.32148 39.85007,150.32148 h 68.60787 L 652.16997,654.64207 H 579.45385 L 530.56562,820.89436 486.19646,654.64207 H 417.99943 L 379.79265,821.71133 323.92038,654.64207 h -73.12694 l 100.24143,301.86841 z m 293.74025,0 12.32477,-36.35492 h 94.90069 l 11.91394,36.35492 h 73.12694 l -97.36565,-299.826 h -65.73208 l -102.70638,299.826 z M 798.83468,851.12205 H 749.94645 L 775.0068,778.4122 Z M 996.03093,956.51048 V 781.68006 l 98.59817,174.83042 h 75.181 v -299.826 h -69.4295 v 175.2389 l -98.1873,-174.42193 h -75.59188 v 299.00903 z m -755.0973,328.05572 v -69.0335 H 116.4535 L 242.57693,982.69779 16.622894,982.28931 v 69.44199 H 126.31331 L 0.189873,1284.5662 Z m 112.15536,0 V 984.33172 h -69.42951 v 300.23448 z m 168.84929,0.4085 c 7.94263,0 15.95373,-0.6127 24.0333,-1.8382 8.07956,-1.2254 15.95372,-3.1998 23.62246,-5.923 v 7.3527 h 69.84034 V 1116.68 H 509.20269 v 69.0335 h 60.39135 v 15.1138 c -7.94262,5.7188 -16.56996,9.8036 -25.882,12.2545 -9.31205,2.4509 -18.69257,3.3359 -28.14155,2.6551 -9.44899,-0.6808 -18.62409,-2.9955 -27.52531,-6.9442 -8.90122,-3.9486 -16.91232,-9.4631 -24.0333,-16.5435 -7.94262,-7.8973 -13.96806,-16.8839 -18.07632,-26.9598 -4.10825,-10.0759 -6.16238,-20.288 -6.16238,-30.6362 0,-10.3482 2.05413,-20.5603 6.16238,-30.6362 4.10826,-10.0759 10.1337,-19.0625 18.07632,-26.9598 7.94263,-7.8973 16.98079,-13.8203 27.11449,-17.769 10.13369,-3.9486 20.40433,-5.923 30.81191,-5.923 10.40758,0 20.67822,1.9744 30.81192,5.923 10.13369,3.9487 19.17185,9.8717 27.11448,17.769 l 49.29906,-49.0179 c -14.78972,-14.7053 -31.49662,-25.7344 -50.12071,-33.08704 -18.62409,-7.35268 -37.65901,-11.02902 -57.10475,-11.02902 -19.44574,0 -38.48065,3.67634 -57.10474,11.02902 -18.62409,7.35264 -35.331,18.38174 -50.12072,33.08704 -14.78972,14.7054 -25.81353,31.317 -33.07145,49.8349 -7.25792,18.5178 -10.88688,37.4442 -10.88688,56.779 0,19.3348 3.62896,38.1931 10.88688,56.5748 7.25792,18.3817 18.28173,34.9252 33.07145,49.6306 14.78972,14.7054 31.49663,25.7344 50.12072,33.0871 18.62409,7.3526 37.659,11.029 57.10474,11.029 z"
         id="path9458" />
    </g>
  </g>
</svg>
